<svg xmlns="http://www.w3.org/2000/svg" width="256" height="256"><path fill="#1976D2" fill-opacity=".016" fill-rule="evenodd" d="M0 128.004v128.004l128.25-.254 128.25-.254.254-127.75L257.008 0H0zm.485.496c0 70.4.119 99.053.265 63.672s.146-92.98 0-128S.485 58.1.485 128.5"/><path fill="#1976D2" fill-opacity=".183" fill-rule="evenodd" d="M73 1.101C39.983 2.704 30.164 3.778 24.397 6.419 16.889 9.856 9.799 16.828 6.629 23.892 3.493 30.879 2.645 39.436.838 82.325c-1.05 24.907-1.019 28.948.224 29.734.791.501 13.825.917 28.965.926 23.339.013 27.868.253 29.762 1.58C62.018 116.126 77 138.28 77 140.015c0 .504-1.304 2.972-2.899 5.486s-3.651 7.592-4.572 11.285c-.92 3.693-1.978 7.932-2.351 9.421-.621 2.478-1.527 1.384-10.761-13L46.334 137.5l-23.167-.268L0 136.963l.003 10.769c.003 12.661 1.643 48.505 3.028 66.181 1.151 14.7 3.526 20.997 10.658 28.263 6.989 7.12 13.616 9.636 28.441 10.797 51.068 4 120.672 4 171.74 0 9.705-.76 13.608-1.524 18.111-3.545 7.159-3.213 14.135-10.207 17.466-17.511 2.878-6.309 4.029-16.784 5.19-47.205.373-9.784 1.057-18.023 1.521-18.309s.842-7.132.843-15.212V136.5l-29.697.28c-16.333.154-29.403-.015-29.043-.374.359-.36-.233-2.392-1.317-4.516-1.981-3.882-7.914-7.89-11.682-7.89-2.987 0-5.926-2.685-9.651-8.817l-3.521-5.797 1.893-6.082c4.001-12.856 3.534-24.055-1.442-34.556-4.189-8.843.471-2.764 16.1 21.002l15.29 23.25h25.927c22.721 0 26.003-.196 26.535-1.582.937-2.441.718-23.604-.238-23.014-.465.288-1.15-7.448-1.521-17.191-1.591-41.707-3.15-48.745-12.795-57.767-7.635-7.141-13.353-9.274-27.926-10.415C176.314.085 112.04-.795 73 1.101M.382 100.5c.002 6.6.164 9.17.359 5.711.196-3.459.195-8.859-.003-12S.38 93.9.382 100.5m131.199-1.149c-3.571 5.188-4.162 6.463-2.155 4.649 2.762-2.498 8.148-10.776 7.445-11.444-.204-.194-2.585 2.863-5.29 6.795M.402 152c0 8.525.154 12.012.341 7.75s.188-11.238 0-15.5c-.187-4.262-.341-.775-.341 7.75m117.426 4.037c-2.465 1.438-5.587 6.934-6.665 11.735-.521 2.317-.612 4.005-.202 3.752.95-.587 11.039-15.154 11.039-15.937 0-.893-2.296-.645-4.172.45"/><path fill="#1976D2" fill-opacity=".449" fill-rule="evenodd" d="M99 .592c-19.461.676-53.784 2.55-62.141 3.393C17.492 5.938 5.938 17.492 3.985 36.859c-.896 8.882-2.706 43.926-3.3 63.891L.35 112h27.424c22.998 0 27.965.257 30.775 1.59 2.462 1.169 5.264 4.553 10.555 12.75 3.961 6.138 7.556 11.56 7.989 12.049.432.49 2.911-1.235 5.508-3.832s7.124-6.078 10.061-7.735c5.779-3.262 5.767-3.112.734-9.333-4.342-5.367-10.039-17.451-11.465-24.321-1.896-9.132-.824-21.822 2.399-28.409 7.112-14.537 27.164-22.94 47.17-19.767 9.667 1.533 16.508 4.92 23.601 11.686 5.058 4.824 6.556 5.72 9.219 5.513 5.93-.46 8.583 2.459 24.23 26.657l14.95 23.121 26.5-.234 26.5-.235.202-2.5.201-2.5-.852 2.5c-.558 1.639-.886-2.14-.951-10.968-.115-15.513-1.754-47.461-3.096-60.348-2.143-20.583-13.087-31.53-33.688-33.698C195.912 1.628 126.237-.354 99 .592m64.411 67.037c6.773 17.651-.249 40.198-17.992 57.767l-6.248 6.187 6.996 8.458c11.556 13.974 10.279 13.6 13.158 3.854 1.365-4.617 2.983-10.276 3.597-12.575 1.417-5.305 6.34-8.653 12.722-8.653h4.368l-1.723-2.584c-.948-1.421-3.827-6.06-6.397-10.311l-4.673-7.728 1.488-4.272c2.274-6.527 1.349-18.799-1.961-26.022-1.45-3.162-2.933-5.75-3.298-5.75-.364 0-.381.733-.037 1.629m-45.136 3.292c-8.552 2.165-11.99 7.762-10.319 16.801.57 3.079 1.984 7.213 3.144 9.188 3.281 5.587 10.291 14.018 11.4 13.712 1.979-.547 15.641-21.713 16.187-25.078.72-4.439-2.747-11.795-6.329-13.427-3.562-1.622-10.18-2.185-14.083-1.196M.158 110c0 1.375.227 1.938.504 1.25.278-.687.278-1.812 0-2.5-.277-.687-.504-.125-.504 1.25m188.366 28.657c-1.295 10.361-5.955 22.802-12.18 32.515-1.693 2.642-1.669 2.725 2.222 7.364 8.696 10.369 9.434 11.636 9.434 16.192 0 7.453-3.665 12.161-10.661 13.698-5.692 1.25-9.345-1.107-18.983-12.248l-2.874-3.322-5.858 3.527c-14.303 8.613-31.498 13.367-44.002 12.166-23.636-2.27-34.472-11.291-37.668-31.36-1.164-7.309-1.93-8.781-14.154-27.189l-8.3-12.5-21.5-.246c-11.825-.135-22.041.104-22.703.531-1.329.856-.347 39.172 1.801 70.215 1.565 22.622 4.946 30.866 15.536 37.881 6.978 4.622 12.457 5.919 29.866 7.069 47.669 3.147 89.363 3.438 139.5.973 39.756-1.955 45.016-3.128 53.906-12.017 6.221-6.222 9.032-12.933 10.108-24.13 1.397-14.541 2.979-46.013 3.056-60.808.044-8.456.39-12.724.93-11.468.639 1.486.878.715.93-3l.071-5-27.75.304c-30.779.336-35.444-.021-38.15-2.926-1.828-1.962-1.867-1.904-2.577 3.779M.3 143c0 3.025.187 4.262.416 2.75s.229-3.988 0-5.5S.3 139.975.3 143m109.981 3.911C103.094 152.117 99 160.341 99 169.57c0 4.893.374 5.909 3.25 8.835 1.787 1.819 4.594 3.554 6.236 3.857 6.481 1.195 20.307-2.646 28.297-7.861l2.283-1.49-7.137-8.706c-3.925-4.788-7.493-8.705-7.927-8.705-.435 0-4.717 5.506-9.517 12.235s-9.122 11.99-9.605 11.691-.88-3.371-.88-6.825c0-5.005.621-7.525 3.058-12.401 2.785-5.574 7.034-10.397 10.041-11.4.864-.288.81-.973-.203-2.595-1.742-2.79-1.797-2.784-6.615.706"/><path fill="#1976D2" fill-opacity=".106" fill-rule="evenodd" d="M80.5 1.587c-2.75.193-14 .841-25 1.441-21.612 1.179-29.353 2.571-35.228 6.337-10.37 6.646-15.05 15.65-16.34 31.437C2.693 55.972 1 91.708 1 102.704V112h56.847l2.964 2.495c1.631 1.372 5.979 7.222 9.662 13S77.426 138 77.739 138s2.931-2.235 5.82-4.967c2.888-2.732 7.268-5.947 9.733-7.144l4.482-2.178-4.331-5.605C81.71 102.92 77.423 84.48 81.984 68.818c3.993-13.711 18.976-23.52 37.516-24.559 15.744-.883 26.73 2.84 36.136 12.247 3.936 3.935 6.091 5.398 7.359 4.995.987-.313 3.605.155 5.818 1.041 3.32 1.328 5.108 3.256 10.237 11.034 3.418 5.183 6.406 9.424 6.641 9.424.479 0 .22-.456-4.251-7.5-2.449-3.856-2.983-5.518-2.335-7.263.517-1.393.394-3.242-.319-4.807-1.117-2.451-.207-3.495 25.028-28.744C218.216 20.276 230 8.152 230 7.743s-.338-.69-.75-.625c-.412.066-.975.028-1.25-.083-1.223-.493-5.831-1.197-9.5-1.451-2.2-.152-5.44-.601-7.2-.998-1.76-.398-7.16-.94-12-1.206-4.84-.265-11.05-.646-13.8-.846-7.305-.53-99.117-1.358-105-.947m33.799 71.037c-5.129 2.529-6.627 5.699-6.056 12.81.27 3.369 1.405 7.912 2.523 10.095 2.295 4.486 10.162 14.471 11.401 14.471 1.361 0 7.822-9.415 7.356-10.718-.24-.67.064-1.527.675-1.904.72-.445.826-.226.302.622-.551.892-.42 1.068.414.553.672-.415.986-1.37.698-2.122s-.025-1.676.586-2.053q1.108-.684.265.717c-.721 1.197-.596 1.201.845.033 1.892-1.535 2.34-3.646.537-2.533-.721.446-.882.274-.43-.457.398-.644 1.12-.926 1.604-.626 1.42.877 2.981-3.048 2.981-7.496 0-5.256-2.239-9.571-5.967-11.499-3.823-1.977-13.629-1.917-17.734.107m45.017 34.202c-3.08 6.403-6.205 10.875-11.843 16.944l-7.659 8.244 7.843 9.426c4.314 5.185 8.163 9.457 8.554 9.493.391.037 1.404-2.265 2.25-5.115 1.732-5.831 1.953-8.021.592-5.87-.719 1.137-1.059.876-1.584-1.216-.477-1.901-.094-3.394 1.341-5.218 1.358-1.727 2.175-2.143 2.521-1.284.321.796.541.63.59-.445.043-.944 1.476-3.306 3.183-5.25s2.845-3.535 2.53-3.535.538-1.638 1.896-3.64c1.359-2.001 2.47-4.081 2.47-4.622s.67-.427 1.488.252-.869-2.857-3.75-7.859-5.463-9.073-5.738-9.049-2.383 3.96-4.684 8.744m14.423 14.193c-5.554.989-5.58 1.826-.038 1.231 5.124-.551 5.908-.802 4.616-1.475-.45-.235-2.509-.125-4.578.244m14.786 19.671c-1.204 8.049-5.259 19.437-9.49 26.652l-4.013 6.842 6.439 7.382c4.184 4.797 6.666 8.595 7.088 10.843 1.574 8.393-5.218 16.597-13.733 16.587-4.694-.005-9.052-3.01-14.455-9.967l-4.678-6.024-3.092 2.076c-5.995 4.027-19.614 10.007-27.217 11.951-14.031 3.589-30.931 2.055-41.652-3.78-9.02-4.909-15.195-14.86-16.389-26.409q-.656-6.343-3.127-10.093c-1.36-2.062-2.664-3.75-2.898-3.75s-.105.52.287 1.155c.446.721.274.882-.457.43-.644-.398-.92-1.128-.615-1.623s-2.901-6.314-7.126-12.931L45.714 138H.985l.627 20.75c.345 11.412.775 23.45.955 26.75.93 17.036 1.567 24.309 2.388 27.29.498 1.81.653 4.848.345 6.75-.389 2.398-.179 3.46.686 3.46.755 0 1.041.789.724 2-.287 1.1-.067 2 .491 2 .557 0 .754.675.437 1.5-.316.825-.249 1.5.15 1.5 1.052 0 56.879-56.216 57.598-58 .333-.825.386 1.2.119 4.5-.333 4.105-.178 5.526.489 4.5.782-1.203 1.006-1.004 1.132 1 .179 2.852.453 5.9.703 7.809.094.72.621 1.031 1.171.691s1.052-.029 1.115.691c.255 2.886.46 3.415 2.385 6.158 10.042 14.304 19.681 19.324 39.073 20.347 14.105.744 22.959-1.111 37.265-7.808 5.742-2.689 11.321-4.888 12.398-4.888s4.051 1.859 6.611 4.132c6.108 5.424 10.438 7.191 16.247 6.633 10.657-1.024 17.69-12.313 13.892-22.301-.557-1.467-2.582-5.029-4.499-7.917s-3.576-6.346-3.686-7.685c-.111-1.339 1.881-7.143 4.427-12.898 2.883-6.517 5.107-13.388 5.895-18.214 1.088-6.654 1.558-7.77 3.322-7.892 1.13-.078-.87-.469-4.445-.869-3.575-.399-7.232-1.037-8.127-1.418-1.328-.563-1.761.196-2.348 4.119m-66.822 17.504c-1.183 2.063-1.313 2.727-.382 1.954 1.146-.95 2.65.211 7.963 6.147 5.827 6.511 6.366 7.454 4.883 8.533-1.388 1.01-1.3 1.041.527.187 1.207-.564 2.425-1.398 2.706-1.853s-2.198-4.165-5.51-8.245c-8.705-10.724-8.114-10.334-10.187-6.723M117 165c-1.175 1.65-1.911 3-1.636 3s1.461-1.35 2.636-3 1.911-3 1.636-3-1.461 1.35-2.636 3m-54 3c.589 1.1 1.295 2 1.57 2s.019-.9-.57-2-1.295-2-1.57-2-.019.9.57 2m47.126 6.566c-2.29 3.061-3.903 5.986-3.585 6.5.687 1.112 8.916 1.069 12.459-.066l2.5-.801-2.595-.099c-4.639-.179-7.307-4.825-5.08-8.85 2.109-3.811.658-2.51-3.699 3.316M123.5 179c-1.319.567-1.489.878-.5.914.825.031 2.175-.381 3-.914 1.828-1.181.249-1.181-2.5 0"/></svg>